<?xml version="1.0" encoding="UTF-8"?>
<svg width="301px" height="301px" viewBox="0 0 301 301" version="1.1" xmlns="http://www.w3.org/2000/svg" xmlns:xlink="http://www.w3.org/1999/xlink">
    <!-- Generator: Sketch 42 (36781) - http://www.bohemiancoding.com/sketch -->
    <title>Untitled 4</title>
    <desc>Created with Sketch.</desc>
    <defs></defs>
    <g id="Page-1" stroke="none" stroke-width="1" fill="none" fill-rule="evenodd">
        <rect id="Rectangle" fill="#F0F3F5" x="0" y="0" width="301" height="301"></rect>
        <g id="favicon" transform="translate(40.000000, 21.000000)">
            <path d="M0,0 L220.721412,0 L220.721412,169.206934 C220.721412,182.155232 214.048344,194.219977 202.997924,201.243543 L109.898374,257.508313 L17.5913922,201.261483 C6.6184083,194.219977 0,182.200082 0,169.30112 L0,0 Z M38.9083333,202.649897 L110.6783,246.438306 L183.425,202.649897 C170.498233,193.092426 156.794067,184.634664 142.462,177.35659 C141.943733,176.996687 141.644733,176.386847 141.664667,175.747018 L141.664667,158.061698 C144.146366,153.71285 145.860634,148.984101 146.747667,144.0754 C148.631366,143.765483 151.322367,141.16617 154.023332,131.178814 C155.478466,127.419809 155.936933,123.350886 155.319,119.371938 C155.448566,118.212246 155.448566,117.032558 155.319,115.872865 C155.219333,111.544011 154.3024,107.265144 152.618034,103.2762 C151.232666,78.7826825 140.269333,74.4838203 140.269333,74.4838203 C137.867367,70.354913 134.4189,66.9058261 130.312634,64.4864665 C123.933966,60.7074667 116.518766,59.0978928 109.173334,59.8876837 C106.273033,60.1376175 103.402633,60.6774747 100.602,61.4872603 C97.2332667,62.5469798 94.0738338,64.1765485 91.233333,66.2859903 C87.6652666,68.6753578 84.3264331,71.3846408 81.2666668,74.3838468 C76.3132333,79.4325104 72.8547997,85.7608354 71.3,92.689002 C70.5126332,95.9481387 70.1438668,99.3072501 70.2036666,102.676358 C68.5890665,106.785271 67.7817668,111.164111 67.8116667,115.572945 C67.6820998,116.902593 67.6820998,118.242238 67.8116667,119.571886 C67.3133334,123.480851 67.7518665,127.459798 69.1073331,131.178814 C71.7983332,141.066197 74.4893332,144.0754 76.3829999,144.0754 C77.1404665,149.014093 78.8647,153.782831 81.4659999,158.061698 L81.4659999,175.557067 C81.5457335,176.206895 81.2367665,176.836729 80.6686666,177.156644 C66.0575333,184.46471 52.0942333,192.992453 38.9083333,202.649897 Z" id="Combined-Shape" fill="#001A31" fill-rule="nonzero"></path>
            <path d="M0,0 L0,169.30112 C0,182.200082 6.6184083,194.219977 17.5913922,201.261483 L109.898374,257.508313 L202.997924,201.243543 C214.048344,194.219977 220.721412,182.155232 220.721412,169.206934 L220.721412,0 L0,0 Z" id="Fill-13" stroke="#001A31" stroke-width="13.5"></path>
        </g>
    </g>
</svg>